<svg version="1.1" id="Layer_1" xmlns="http://www.w3.org/2000/svg" xmlns:xlink="http://www.w3.org/1999/xlink" x="0px" y="0px"
	 width="100%" viewBox="0 0 244 292" enable-background="new 0 0 244 292" xml:space="preserve">
<path fill="#107A7D" opacity="1.000000" stroke="none" 
	d="
M1.000000,112.000000 
	C1.000000,74.666672 1.000000,37.833351 1.000000,1.000020 
	C82.333305,1.000013 163.666611,1.000013 244.999939,1.000007 
	C244.999954,98.333282 244.999954,195.666565 244.999969,292.999878 
	C163.666733,292.999939 82.333473,292.999939 1.000106,292.999969 
	C1.000000,232.833328 1.000000,172.666672 1.000000,112.000000 
M184.584686,165.274612 
	C184.331497,165.483307 184.132187,165.734741 183.963638,166.852371 
	C182.659470,173.946716 181.355301,181.041061 180.032394,188.943954 
	C177.033478,197.455734 174.779419,206.331451 170.844147,214.385727 
	C166.095306,224.105118 160.172791,233.291367 154.271515,242.392776 
	C150.522842,248.174316 146.167252,253.629837 141.579285,258.782318 
	C136.071976,264.967316 130.028259,270.674683 123.455566,277.363525 
	C126.289368,276.894653 128.452759,277.057861 130.052216,276.186249 
	C139.462921,271.057861 149.649338,266.795807 157.821609,260.101929 
	C166.761246,252.779510 174.434631,243.616379 181.458939,234.345566 
	C186.882935,227.186813 190.772186,218.779221 194.747696,210.635834 
	C197.999222,203.975494 200.370605,196.885483 203.787537,189.748795 
	C205.908783,181.983078 208.090485,174.232803 210.081238,166.433777 
	C210.356186,165.356598 209.685638,164.038055 209.565262,161.985077 
	C210.095917,157.642334 210.626572,153.299606 211.756073,148.481918 
	C212.171158,146.758667 213.046890,145.003036 212.928421,143.317291 
	C211.985901,129.906891 210.945389,116.501244 209.686661,103.117477 
	C209.490601,101.032745 208.035004,99.066483 206.873535,96.251335 
	C205.523224,91.451164 204.181381,86.648598 202.820999,81.851273 
	C198.824814,67.758759 192.576675,54.710861 183.959030,42.900780 
	C179.751007,37.133911 175.575333,30.917929 170.038864,26.652533 
	C162.956253,21.195961 154.527725,17.480198 146.630478,13.102166 
	C146.141541,12.831113 145.227615,13.326633 144.393784,13.488306 
	C144.675873,14.365783 144.718460,14.907450 144.995392,15.270214 
	C145.493546,15.922732 146.081894,16.529814 146.719635,17.048897 
	C160.089447,27.931196 168.121414,42.555805 174.977295,57.898403 
	C177.225952,62.930645 178.422226,68.433144 180.045425,74.574699 
	C180.075989,75.239128 180.054199,75.910782 180.144821,76.566910 
	C182.095551,90.691841 184.020660,104.820580 186.068893,118.931419 
	C186.319977,120.661209 187.243347,122.293411 187.994400,124.897964 
	C187.946930,129.606842 187.899460,134.315735 187.249329,139.496384 
	C186.859848,140.386307 186.178711,141.259598 186.126785,142.168793 
	C185.692474,149.775177 185.373795,157.388138 184.999527,165.001419 
	C184.999527,165.001419 184.993057,165.016541 184.584686,165.274612 
M177.044998,92.119911 
	C174.922363,83.798111 172.819641,75.471046 170.625641,67.168098 
	C170.499237,66.689735 169.629578,66.407768 168.787613,65.360405 
	C163.503052,53.132675 158.913452,40.466549 149.454468,30.625950 
	C143.537674,24.470438 137.156143,18.761644 130.744400,12.172280 
	C126.289017,8.832663 111.694679,11.130613 106.287315,16.121609 
	C104.521927,17.088846 102.827805,18.227835 100.979309,18.994743 
	C90.904991,23.174404 82.262238,29.952597 75.289352,37.714310 
	C60.549702,54.121437 48.134853,72.309517 41.220291,93.714470 
	C36.956715,106.912926 32.900021,120.116234 31.348875,134.601807 
	C28.762112,147.758469 29.445944,160.873108 32.007221,174.414322 
	C32.007221,174.414322 32.052090,174.886108 32.278519,175.262253 
	C32.417152,175.524612 32.601852,175.749069 33.046505,176.729965 
	C34.762554,184.193939 35.792427,191.903091 38.351906,199.065674 
	C42.416504,210.440262 46.446911,222.055969 52.421535,232.461655 
	C60.027344,245.708282 68.555840,258.764862 82.560135,266.614258 
	C88.053192,269.693146 93.498474,272.976501 99.304047,275.332550 
	C102.633087,276.683563 107.051781,277.571655 110.241982,276.490540 
	C114.401405,275.081024 118.300552,271.980164 121.475174,268.777802 
	C128.347824,261.845154 134.975540,254.621796 141.185318,247.090164 
	C153.293747,232.404175 162.525650,215.794739 168.650146,197.951141 
	C173.389816,184.142242 177.657440,169.880432 178.860367,154.646912 
	C179.196793,154.102020 179.826447,153.557358 179.826874,153.012207 
	C179.838654,138.003067 180.002625,122.988411 179.623703,107.987755 
	C179.496674,102.958794 177.958618,97.965477 177.044998,92.119911 
z"/>
<path fill="#FEFEFE" opacity="1.000000" stroke="none" 
	d="
M31.855595,134.042526 
	C32.900021,120.116234 36.956715,106.912926 41.220291,93.714470 
	C48.134853,72.309517 60.549702,54.121437 75.289352,37.714310 
	C82.262238,29.952597 90.904991,23.174404 100.979309,18.994743 
	C102.827805,18.227835 104.521927,17.088846 107.036446,16.024666 
	C115.290436,13.185308 122.794044,10.433487 130.983139,12.852404 
	C137.156143,18.761644 143.537674,24.470438 149.454468,30.625950 
	C158.913452,40.466549 163.503052,53.132675 168.926575,66.079971 
	C171.417267,75.535126 173.768997,84.270729 176.059540,93.429565 
	C177.029861,104.305794 178.560211,114.740311 178.948410,125.217148 
	C179.315048,135.112366 178.480896,145.052094 178.174927,154.972244 
	C177.657440,169.880432 173.389816,184.142242 168.650146,197.951141 
	C162.525650,215.794739 153.293747,232.404175 141.185318,247.090164 
	C134.975540,254.621796 128.347824,261.845154 121.475174,268.777802 
	C118.300552,271.980164 114.401405,275.081024 110.241982,276.490540 
	C107.051781,277.571655 102.633087,276.683563 99.304047,275.332550 
	C93.498474,272.976501 88.053192,269.693146 82.560135,266.614258 
	C68.555840,258.764862 60.027344,245.708282 52.421535,232.461655 
	C46.446911,222.055969 42.416504,210.440262 38.351906,199.065674 
	C35.792427,191.903091 34.762554,184.193939 32.961113,176.080963 
	C32.601181,175.250015 32.326633,175.068054 32.052090,174.886108 
	C32.052090,174.886108 32.007221,174.414322 32.002426,173.826202 
	C31.950287,160.172913 31.902941,147.107712 31.855595,134.042526 
M64.156296,149.248932 
	C63.771107,150.292419 63.050858,151.336151 63.051571,152.379379 
	C63.060581,165.576324 63.173416,178.773209 63.448299,192.677048 
	C67.206383,195.524200 81.558151,195.935715 85.098900,193.253799 
	C85.444214,192.992233 85.546021,192.409195 85.967346,191.061493 
	C85.975922,178.742676 86.059387,166.422958 85.908089,154.106094 
	C85.886673,152.363327 84.721657,150.634613 83.551720,148.216782 
	C77.324265,148.431976 71.096802,148.647156 64.156296,149.248932 
M118.968666,191.057343 
	C118.912567,168.046143 118.856461,145.034943 118.696259,121.291382 
	C115.685638,119.186104 100.091049,118.142448 97.594788,120.117218 
	C96.714912,120.813278 96.027916,122.327118 96.023270,123.470718 
	C95.932777,145.736542 95.885750,168.003571 96.114563,190.267410 
	C96.129936,191.762772 98.301468,194.389908 99.651520,194.513779 
	C104.917938,194.996902 110.265594,194.833954 115.563049,194.544876 
	C116.674301,194.484222 117.700752,192.869507 118.968666,191.057343 
M152.967331,191.054001 
	C152.979111,156.392654 153.000854,121.731316 152.966125,87.070023 
	C152.964752,85.691750 152.426468,84.314018 152.024612,82.142426 
	C151.339188,81.525070 150.667053,80.389832 149.966263,80.371849 
	C144.081482,80.220932 138.171326,80.020210 132.319931,80.482056 
	C131.150558,80.574356 130.199310,83.429878 129.015991,85.939003 
	C129.010010,113.823341 128.984482,141.707687 129.011063,169.591995 
	C129.018173,177.049866 129.184418,184.507568 129.498062,192.662338 
	C133.262192,195.790878 148.770401,195.927124 152.309204,192.840729 
	C152.532181,192.646240 152.583374,192.254745 152.967331,191.054001 
z"/>
<path fill="#FCFDFD" opacity="1.000000" stroke="none" 
	d="
M211.157227,148.956863 
	C210.626572,153.299606 210.095917,157.642334 209.361328,162.759064 
	C207.149002,172.350693 205.140594,181.168335 203.132187,189.985962 
	C200.370605,196.885483 197.999222,203.975494 194.747696,210.635834 
	C190.772186,218.779221 186.882935,227.186813 181.458939,234.345566 
	C174.434631,243.616379 166.761246,252.779510 157.821609,260.101929 
	C149.649338,266.795807 139.462921,271.057861 130.052216,276.186249 
	C128.452759,277.057861 126.289368,276.894653 123.455566,277.363525 
	C130.028259,270.674683 136.071976,264.967316 141.579285,258.782318 
	C146.167252,253.629837 150.522842,248.174316 154.271515,242.392776 
	C160.172791,233.291367 166.095306,224.105118 170.844147,214.385727 
	C174.779419,206.331451 177.033478,197.455734 180.383240,188.374802 
	C182.409927,180.200089 184.085785,172.594543 185.869263,164.569214 
	C186.601913,155.774490 187.226944,147.399551 187.851990,139.024612 
	C187.899460,134.315735 187.946930,129.606842 187.993134,124.006332 
	C187.352280,115.621841 187.175751,108.052559 185.954773,100.655663 
	C184.460297,91.601837 182.090866,82.692444 180.099747,73.720596 
	C178.422226,68.433144 177.225952,62.930645 174.977295,57.898403 
	C168.121414,42.555805 160.089447,27.931196 146.719635,17.048897 
	C146.081894,16.529814 145.493546,15.922732 144.995392,15.270214 
	C144.718460,14.907450 144.675873,14.365783 144.393784,13.488306 
	C145.227615,13.326633 146.141541,12.831113 146.630478,13.102166 
	C154.527725,17.480198 162.956253,21.195961 170.038864,26.652533 
	C175.575333,30.917929 179.751007,37.133911 183.959030,42.900780 
	C192.576675,54.710861 198.824814,67.758759 202.820999,81.851273 
	C204.181381,86.648598 205.523224,91.451164 206.953827,97.051636 
	C208.030411,103.661995 209.526367,109.438759 209.916046,115.289207 
	C210.662079,126.489624 210.779144,137.731934 211.157227,148.956863 
z"/>
<path fill="#09676C" opacity="1.000000" stroke="none" 
	d="
M178.517639,154.809570 
	C178.480896,145.052094 179.315048,135.112366 178.948410,125.217148 
	C178.560211,114.740311 177.029861,104.305794 176.295837,93.418762 
	C176.593323,92.984741 177.065536,92.955864 177.065536,92.955864 
	C177.958618,97.965477 179.496674,102.958794 179.623703,107.987755 
	C180.002625,122.988411 179.838654,138.003067 179.826874,153.012207 
	C179.826447,153.557358 179.196793,154.102020 178.517639,154.809570 
z"/>
<path fill="#066265" opacity="1.000000" stroke="none" 
	d="
M211.456650,148.719391 
	C210.779144,137.731934 210.662079,126.489624 209.916046,115.289207 
	C209.526367,109.438759 208.030411,103.661995 207.097992,97.448692 
	C208.035004,99.066483 209.490601,101.032745 209.686661,103.117477 
	C210.945389,116.501244 211.985901,129.906891 212.928421,143.317291 
	C213.046890,145.003036 212.171158,146.758667 211.456650,148.719391 
z"/>
<path fill="#0A6267" opacity="1.000000" stroke="none" 
	d="
M180.072586,74.147644 
	C182.090866,82.692444 184.460297,91.601837 185.954773,100.655663 
	C187.175751,108.052559 187.352280,115.621841 187.923523,123.542770 
	C187.243347,122.293411 186.319977,120.661209 186.068893,118.931419 
	C184.020660,104.820580 182.095551,90.691841 180.144821,76.566910 
	C180.054199,75.910782 180.075989,75.239128 180.072586,74.147644 
z"/>
<path fill="#0C6366" opacity="1.000000" stroke="none" 
	d="
M31.602234,134.322174 
	C31.902941,147.107712 31.950287,160.172913 31.926235,173.601837 
	C29.445944,160.873108 28.762112,147.758469 31.602234,134.322174 
z"/>
<path fill="#156C71" opacity="1.000000" stroke="none" 
	d="
M203.459869,189.867371 
	C205.140594,181.168335 207.149002,172.350693 209.305115,163.182159 
	C209.685638,164.038055 210.356186,165.356598 210.081238,166.433777 
	C208.090485,174.232803 205.908783,181.983078 203.459869,189.867371 
z"/>
<path fill="#0F676B" opacity="1.000000" stroke="none" 
	d="
M177.055267,92.537888 
	C177.065536,92.955864 176.593323,92.984741 176.357025,92.995537 
	C173.768997,84.270729 171.417267,75.535126 169.085678,66.416962 
	C169.629578,66.407768 170.499237,66.689735 170.625641,67.168098 
	C172.819641,75.471046 174.922363,83.798111 177.055267,92.537888 
z"/>
<path fill="#106E72" opacity="1.000000" stroke="none" 
	d="
M130.863770,12.512342 
	C122.794044,10.433487 115.290436,13.185308 107.407440,15.917030 
	C111.694679,11.130613 126.289017,8.832663 130.863770,12.512342 
z"/>
<path fill="#096468" opacity="1.000000" stroke="none" 
	d="
M187.550659,139.260498 
	C187.226944,147.399551 186.601913,155.774490 185.683853,164.567749 
	C185.390839,164.986069 185.020248,164.999130 185.020248,164.999130 
	C185.373795,157.388138 185.692474,149.775177 186.126785,142.168793 
	C186.178711,141.259598 186.859848,140.386307 187.550659,139.260498 
z"/>
<path fill="#11696D" opacity="1.000000" stroke="none" 
	d="
M185.009888,165.000275 
	C185.020248,164.999130 185.390839,164.986069 185.576233,164.987518 
	C184.085785,172.594543 182.409927,180.200089 180.392609,187.970520 
	C181.355301,181.041061 182.659470,173.946716 184.170364,166.300049 
	C184.620178,165.535812 184.825500,165.292084 184.993057,165.016541 
	C184.993057,165.016541 184.999527,165.001419 185.009888,165.000275 
z"/>
<path fill="#096468" opacity="1.000000" stroke="none" 
	d="
M184.788879,165.145569 
	C184.825500,165.292084 184.620178,165.535812 184.181931,165.888306 
	C184.132187,165.734741 184.331497,165.483307 184.788879,165.145569 
z"/>
<path fill="#0C6366" opacity="1.000000" stroke="none" 
	d="
M32.165306,175.074188 
	C32.326633,175.068054 32.601181,175.250015 32.854172,175.683777 
	C32.601852,175.749069 32.417152,175.524612 32.165306,175.074188 
z"/>
<path fill="#05A676" opacity="1.000000" stroke="none" 
	d="
M129.277603,191.965363 
	C129.184418,184.507568 129.018173,177.049866 129.011063,169.591995 
	C128.984482,141.707687 129.010010,113.823341 129.389160,85.467407 
	C130.172287,84.991936 130.582275,84.988068 130.994308,85.454666 
	C131.007584,121.314659 131.018814,156.704178 130.737427,192.078415 
	C130.055756,192.030533 129.666687,191.997940 129.277603,191.965363 
z"/>
<path fill="#02A06E" opacity="1.000000" stroke="none" 
	d="
M152.138351,82.936035 
	C152.426468,84.314018 152.964752,85.691750 152.966125,87.070023 
	C153.000854,121.731316 152.979111,156.392654 152.546265,191.522324 
	C151.734222,192.032593 151.343216,192.074554 150.970856,191.636688 
	C150.986816,155.096680 150.984161,119.036469 151.270660,82.964676 
	C151.752670,82.947395 151.945511,82.941711 152.138351,82.936035 
z"/>
<path fill="#129F6E" opacity="1.000000" stroke="none" 
	d="
M118.766289,191.970917 
	C117.700752,192.869507 116.674301,194.484222 115.563049,194.544876 
	C110.265594,194.833954 104.917938,194.996902 99.651520,194.513779 
	C98.301468,194.389908 96.129936,191.762772 96.114563,190.267410 
	C95.885750,168.003571 95.932777,145.736542 96.023270,123.470718 
	C96.027916,122.327118 96.714912,120.813278 97.594788,120.117218 
	C100.091049,118.142448 115.685638,119.186104 118.557190,121.659714 
	C118.418114,122.028046 118.036201,122.011765 117.648102,121.848724 
	C111.625961,121.484772 105.982574,121.050407 100.365562,121.275055 
	C99.207886,121.321350 97.199371,123.815857 97.185982,125.197495 
	C96.980904,146.359695 96.980568,167.525055 97.178543,188.687378 
	C97.191803,190.104385 99.155373,192.693329 100.246452,192.711975 
	C106.183479,192.813461 112.131371,192.279282 118.248306,191.956451 
	C118.421097,191.949036 118.766289,191.970917 118.766289,191.970917 
z"/>
<path fill="#049B71" opacity="1.000000" stroke="none" 
	d="
M84.085953,148.899384 
	C84.721657,150.634613 85.886673,152.363327 85.908089,154.106094 
	C86.059387,166.422958 85.975922,178.742676 85.567513,191.529297 
	C84.772690,192.019714 84.377693,192.042343 83.991699,191.589325 
	C83.979607,177.096497 83.958504,163.079346 83.974670,149.021576 
	C84.011925,148.980988 84.085960,148.899384 84.085953,148.899384 
z"/>
<path fill="#049B71" opacity="1.000000" stroke="none" 
	d="
M63.259762,191.970123 
	C63.173416,178.773209 63.060581,165.576324 63.051571,152.379379 
	C63.050858,151.336151 63.771107,150.292419 64.559738,149.104370 
	C64.963188,148.959824 65.057152,149.057190 65.048691,149.521729 
	C65.041267,164.018005 65.042305,178.049728 64.745575,192.070221 
	C64.051788,192.029358 63.655777,191.999741 63.259762,191.970123 
z"/>
<path fill="#00945D" opacity="1.000000" stroke="none" 
	d="
M118.867477,191.514130 
	C118.766289,191.970917 118.421097,191.949036 118.223907,191.492447 
	C118.029877,168.027832 118.033035,145.019791 118.036201,122.011765 
	C118.036201,122.011765 118.418114,122.028046 118.609238,122.025894 
	C118.856461,145.034943 118.912567,168.046143 118.867477,191.514130 
z"/>
<path fill="#13A979" opacity="1.000000" stroke="none" 
	d="
M152.081482,82.539230 
	C151.945511,82.941711 151.752670,82.947395 150.932404,82.731537 
	C144.904343,82.348663 139.499527,82.025810 134.106552,82.164162 
	C133.045029,82.191391 132.029175,83.998146 130.992249,84.984192 
	C130.582275,84.988068 130.172287,84.991936 129.454895,85.003540 
	C130.199310,83.429878 131.150558,80.574356 132.319931,80.482056 
	C138.171326,80.020210 144.081482,80.220932 149.966263,80.371849 
	C150.667053,80.389832 151.339188,81.525070 152.081482,82.539230 
z"/>
<path fill="#1FAD80" opacity="1.000000" stroke="none" 
	d="
M150.952225,192.116501 
	C151.343216,192.074554 151.734222,192.032593 152.419846,191.972778 
	C152.583374,192.254745 152.532181,192.646240 152.309204,192.840729 
	C148.770401,195.927124 133.262192,195.790878 129.387833,192.313843 
	C129.666687,191.997940 130.055756,192.030533 131.078369,192.299835 
	C138.125351,192.396530 144.538788,192.256516 150.952225,192.116501 
z"/>
<path fill="#1FA47C" opacity="1.000000" stroke="none" 
	d="
M63.354031,192.323578 
	C63.655777,191.999741 64.051788,192.029358 65.083611,192.294266 
	C71.807175,192.374710 77.894943,192.219849 83.982704,192.064987 
	C84.377693,192.042343 84.772690,192.019714 85.464264,191.986237 
	C85.546021,192.409195 85.444214,192.992233 85.098900,193.253799 
	C81.558151,195.935715 67.206383,195.524200 63.354031,192.323578 
z"/>
<path fill="#049B71" opacity="1.000000" stroke="none" 
	d="
M64.916267,148.911072 
	C71.096802,148.647156 77.324265,148.431976 83.818840,148.558075 
	C84.085960,148.899384 84.011925,148.980988 83.510910,149.009888 
	C77.025650,149.044922 71.041405,149.051056 65.057152,149.057190 
	C65.057152,149.057190 64.963188,148.959824 64.916267,148.911072 
z"/>
<path fill="#0BAD81" opacity="1.000000" stroke="none" 
	d="
M150.970856,191.636688 
	C144.538788,192.256516 138.125351,192.396530 131.370972,192.315125 
	C131.018814,156.704178 131.007584,121.314659 130.994308,85.454666 
	C132.029175,83.998146 133.045029,82.191391 134.106552,82.164162 
	C139.499527,82.025810 144.904343,82.348663 150.643250,82.743118 
	C150.984161,119.036469 150.986816,155.096680 150.970856,191.636688 
z"/>
<path fill="#0BAD81" opacity="1.000000" stroke="none" 
	d="
M117.648102,121.848724 
	C118.033035,145.019791 118.029877,168.027832 118.051117,191.499847 
	C112.131371,192.279282 106.183479,192.813461 100.246452,192.711975 
	C99.155373,192.693329 97.191803,190.104385 97.178543,188.687378 
	C96.980568,167.525055 96.980904,146.359695 97.185982,125.197495 
	C97.199371,123.815857 99.207886,121.321350 100.365562,121.275055 
	C105.982574,121.050407 111.625961,121.484772 117.648102,121.848724 
z"/>
<path fill="#0AA77F" opacity="1.000000" stroke="none" 
	d="
M65.048691,149.521729 
	C71.041405,149.051056 77.025650,149.044922 83.473656,149.050476 
	C83.958504,163.079346 83.979607,177.096497 83.991699,191.589325 
	C77.894943,192.219849 71.807175,192.374710 65.381378,192.305511 
	C65.042305,178.049728 65.041267,164.018005 65.048691,149.521729 
z"/>
</svg>